<svg width="50" height="49" viewBox="0 0 50 49" fill="none" xmlns="http://www.w3.org/2000/svg">
<g clip-path="url(#clip0)">
<path fill-rule="evenodd" clip-rule="evenodd" d="M25.2002 49C38.7312 49 49.7002 38.031 49.7002 24.5C49.7002 10.969 38.7312 0 25.2002 0C11.6692 0 0.700195 10.969 0.700195 24.5C0.700195 38.031 11.6692 49 25.2002 49Z" fill="#394D58"/>
<path fill-rule="evenodd" clip-rule="evenodd" d="M25.2 27.3271L39.3346 15.0771H11.0654L25.2 27.3271ZM21.3822 25.9711L25.2 29.1048L28.9579 25.9711L39.3346 34.8656H11.0654L21.3822 25.9711ZM10.123 33.9233V16.0195L20.4884 24.9714L10.123 33.9233ZM40.2769 33.9233V16.0195L29.9115 24.9714L40.2769 33.9233Z" fill="white"/>
</g>
<defs>
<clipPath id="clip0">
<rect width="49" height="49" fill="white" transform="translate(0.700195)"/>
</clipPath>
</defs>
</svg>
