<svg width="49" height="49" viewBox="0 0 49 49" fill="none" xmlns="http://www.w3.org/2000/svg">
<g clip-path="url(#clip0)">
<path fill-rule="evenodd" clip-rule="evenodd" d="M24.4064 48.9998L24.4283 48.9999H24.4208L24.4064 48.9998ZM24.5792 48.9999H24.5717L24.5936 48.9998L24.5792 48.9999ZM24.3316 48.9994L24.3552 48.9995H24.3416L24.3316 48.9994ZM24.6584 48.9995H24.6448L24.6684 48.9994L24.6584 48.9995ZM24.2594 48.9989L24.2752 48.9989L24.2626 48.9989H24.2594ZM24.7374 48.9989L24.7248 48.9989L24.7406 48.9989H24.7374ZM24.8165 48.998L24.8109 48.9981L24.8323 48.9978L24.8165 48.998ZM24.1677 48.9978L24.1891 48.9981L24.1835 48.998L24.1677 48.9978ZM24.8954 48.9968L24.8825 48.997L24.9088 48.9967L24.8954 48.9968ZM24.0912 48.9967L24.1175 48.997L24.1046 48.9968L24.0912 48.9967ZM24.9743 48.9955L24.9569 48.9958L24.9812 48.9953L24.9743 48.9955ZM24.0188 48.9953L24.0431 48.9958L24.0257 48.9955L24.0188 48.9953ZM23.9291 48.9935L23.9507 48.994L23.9468 48.9939L23.9291 48.9935ZM25.0532 48.9939L25.0493 48.994L25.0709 48.9935L25.0532 48.9939ZM23.8505 48.9915L23.88 48.9922L23.8681 48.992L23.8505 48.9915ZM25.1319 48.992L25.12 48.9922L25.1495 48.9915L25.1319 48.992ZM25.2107 48.9899L25.1915 48.9904L25.2217 48.9896L25.2107 48.9899ZM23.7783 48.9896L23.8085 48.9904L23.7893 48.9899L23.7783 48.9896ZM23.7094 48.9875L23.7309 48.9881L23.7106 48.9875L23.6921 48.9869L23.7094 48.9875ZM25.2894 48.9875L25.2691 48.9881L25.2906 48.9875L25.3079 48.9869L25.2894 48.9875ZM25.3679 48.9849L25.3572 48.9853L25.3902 48.9841L25.3679 48.9849ZM23.6098 48.9841L23.6428 48.9853L23.6321 48.9849L23.6098 48.9841ZM23.5381 48.9814L23.5727 48.9827L23.5535 48.982L23.5381 48.9814ZM25.4465 48.982L25.4273 48.9827L25.4619 48.9814L25.4465 48.982ZM23.4677 48.9786L23.5016 48.98L23.4751 48.9789L23.4677 48.9786ZM25.5249 48.9789L25.4984 48.98L25.5323 48.9786L25.5249 48.9789ZM23.3692 48.9743L23.4055 48.9759L23.3966 48.9756L23.3692 48.9743ZM25.6034 48.9756L25.5945 48.9759L25.6308 48.9743L25.6034 48.9756ZM23.2984 48.971L23.3362 48.9727L23.3184 48.972L23.2984 48.971ZM25.6816 48.972L25.6638 48.9727L25.7016 48.971L25.6816 48.972ZM23.2288 48.9675L23.2668 48.9694L23.2401 48.9681L23.2288 48.9675ZM25.7599 48.9681L25.7332 48.9694L25.7712 48.9675L25.7599 48.9681ZM25.8382 48.964L25.8036 48.9658L25.8343 48.9642L25.8705 48.9622L25.8382 48.964ZM23.1657 48.9642L23.1964 48.9658L23.1618 48.964L23.1295 48.9622L23.1657 48.9642ZM25.9163 48.9596L25.901 48.9605L25.9399 48.9583L25.9163 48.9596ZM23.0601 48.9583L23.099 48.9605L23.0837 48.9596L23.0601 48.9583ZM22.991 48.9542L23.0298 48.9565L23.0056 48.9551L22.991 48.9542ZM25.9944 48.9551L25.9702 48.9565L26.009 48.9542L25.9944 48.9551ZM22.9251 48.95L22.96 48.9522L22.9275 48.9502L22.8948 48.9481L22.9251 48.95ZM26.0725 48.9502L26.04 48.9522L26.0749 48.95L26.1052 48.9481L26.0725 48.9502ZM26.1504 48.9452L26.1387 48.9459L26.1758 48.9434L26.1504 48.9452ZM22.8242 48.9434L22.8613 48.9459L22.8496 48.9452L22.8242 48.9434ZM22.7552 48.9387L22.7916 48.9412L22.7717 48.9399L22.7552 48.9387ZM26.2283 48.9399L26.2084 48.9412L26.2448 48.9387L26.2283 48.9399ZM22.6864 48.9338L22.7198 48.9362L22.6939 48.9343L22.6864 48.9338ZM26.3061 48.9343L26.2802 48.9362L26.3136 48.9338L26.3061 48.9343ZM22.5939 48.9268L22.6232 48.929L22.6161 48.9285L22.5939 48.9268ZM26.3839 48.9285L26.3768 48.929L26.4061 48.9268L26.3839 48.9285ZM26.4615 48.9225L26.4476 48.9235L26.4773 48.9211L26.4615 48.9225ZM22.5227 48.9211L22.5524 48.9235L22.5385 48.9225L22.5227 48.9211ZM22.4533 48.9155L22.4786 48.9176L22.4608 48.9162L22.4533 48.9155ZM26.5392 48.9162L26.5214 48.9176L26.5467 48.9155L26.5392 48.9162ZM22.3769 48.9091L22.3845 48.9098L22.3832 48.9097L22.3769 48.9091ZM26.6168 48.9097L26.6155 48.9098L26.6231 48.9091L26.6168 48.9097ZM26.6943 48.9029L26.6874 48.9034L26.7047 48.9019L26.6943 48.9029ZM22.2953 48.9019L22.3126 48.9034L22.3057 48.9029L22.2953 48.9019ZM22.2235 48.8954L22.2364 48.8966L22.2284 48.8959L22.2235 48.8954ZM26.7716 48.8959L26.7636 48.8966L26.7765 48.8954L26.7716 48.8959ZM20.6719 48.7021C8.96556 46.8621 0 36.7198 0 24.5C0 10.9781 10.9781 0 24.5 0C38.0219 0 49 10.9781 49 24.5C49 36.7198 40.0344 46.8621 28.3281 48.7021V31.582H34.0368L35.123 24.5H28.3281V19.9042C28.3281 17.9667 29.2773 16.0781 32.3208 16.0781H35.4102V10.0488C35.4102 10.0488 32.6064 9.57031 29.9259 9.57031C24.3296 9.57031 20.6719 12.962 20.6719 19.1023V24.5H14.4512V31.582H20.6719V48.7021Z" fill="#394D58"/>
</g>
<defs>
<clipPath id="clip0">
<rect width="49" height="49" fill="white"/>
</clipPath>
</defs>
</svg>
