<svg width="39" height="37" viewBox="0 0 39 37" fill="none" xmlns="http://www.w3.org/2000/svg">
<path d="M38.5709 35.2836H33.5311V20.9971H38.5709C38.6847 20.9971 38.7938 20.9537 38.8743 20.8764C38.9548 20.7991 39 20.6943 39 20.585C39 20.4757 38.9548 20.3708 38.8743 20.2936C38.7938 20.2163 38.6847 20.1728 38.5709 20.1728H33.102C32.9882 20.1728 32.879 20.2163 32.7986 20.2936C32.7181 20.3708 32.6729 20.4757 32.6729 20.585V24.5118H28.4601C28.476 24.4681 28.4842 24.4223 28.4845 24.376V12.2352H32.1782C32.2667 12.2352 32.3532 12.209 32.4256 12.16C32.498 12.111 32.5528 12.0417 32.5826 11.9616C32.6124 11.8814 32.6156 11.7944 32.5919 11.7125C32.5681 11.6305 32.5185 11.5576 32.4499 11.5038L26.6142 6.9216V1.35506C26.6142 1.24575 26.569 1.14091 26.4885 1.06362C26.408 0.986325 26.2989 0.942902 26.1851 0.942902H21.8427C21.7289 0.942902 21.6198 0.986325 21.5393 1.06362C21.4589 1.14091 21.4136 1.24575 21.4136 1.35506V2.83478L17.9228 0.0927278C17.846 0.0327454 17.75 0 17.651 0C17.552 0 17.4561 0.0327454 17.3793 0.0927278L2.85214 11.5006C2.7822 11.554 2.73139 11.6272 2.70681 11.7097C2.68223 11.7923 2.68511 11.8801 2.71504 11.9611C2.74497 12.042 2.80046 12.1119 2.87376 12.161C2.94707 12.2102 3.03452 12.2361 3.12391 12.2352H6.81669V21.8918L3.9636 21.2275C3.24442 21.0584 2.48792 21.1135 1.8035 21.3848C1.11908 21.656 0.542233 22.1293 0.156388 22.7363C0.0135267 22.9604 -0.0338407 23.2288 0.0241471 23.4856C0.0821348 23.7424 0.241009 23.9679 0.467696 24.115L13.7302 32.7307C14.8237 33.4398 16.1129 33.8189 17.4323 33.8193C17.6426 33.8193 17.853 33.8096 18.0641 33.7894L28.2675 32.843H32.6729V35.6958C32.6729 35.8051 32.7181 35.9099 32.7986 35.9872C32.879 36.0645 32.9882 36.1079 33.102 36.1079H38.5709C38.6847 36.1079 38.7938 36.0645 38.8743 35.9872C38.9548 35.9099 39 35.8051 39 35.6958C39 35.5865 38.9548 35.4816 38.8743 35.4043C38.7938 35.327 38.6847 35.2836 38.5709 35.2836ZM7.24579 11.4076H4.32623L17.6485 0.944518L21.5693 4.02276C21.632 4.07429 21.7088 4.10735 21.7905 4.11796C21.8723 4.12857 21.9554 4.11628 22.0301 4.08256C22.1047 4.04885 22.1677 3.99514 22.2113 3.92791C22.2549 3.86067 22.2774 3.78276 22.2761 3.70354V1.76398H25.7602V7.1099C25.7601 7.17099 25.7741 7.23133 25.8014 7.28655C25.8286 7.34177 25.8682 7.39047 25.9175 7.42911L30.98 11.4044H28.0554C27.9416 11.4044 27.8325 11.4478 27.752 11.5251C27.6715 11.6024 27.6263 11.7073 27.6263 11.8166V23.8467C25.9504 22.5641 23.9007 21.814 21.7611 21.7002V15.509C21.76 14.4716 21.3304 13.477 20.5666 12.7435C19.8028 12.01 18.7673 11.5976 17.6872 11.5967H17.614C16.5341 11.5978 15.4987 12.0103 14.7351 12.7438C13.9715 13.4773 13.542 14.4717 13.5409 15.509V21.6849C13.0551 21.6906 12.5767 21.7998 12.1402 22.0047C11.7037 22.2096 11.32 22.505 11.0168 22.8696L7.67489 22.0946V11.8198C7.67489 11.7105 7.62968 11.6056 7.54921 11.5284C7.46873 11.4511 7.35959 11.4076 7.24579 11.4076ZM20.9029 21.6849H14.3991V15.509C14.4 14.6903 14.739 13.9054 15.3417 13.3264C15.9444 12.7475 16.7616 12.4219 17.614 12.4211H17.6872C18.5397 12.4219 19.3569 12.7475 19.9598 13.3264C20.5626 13.9053 20.9018 14.6902 20.9029 15.509V21.6849ZM28.2271 32.0187L17.9851 32.9691C16.6549 33.091 15.3219 32.7653 14.214 32.0478L0.94896 23.4353C0.904714 23.4068 0.873689 23.3629 0.862395 23.3129C0.8511 23.2629 0.860414 23.2106 0.888382 23.167C1.17984 22.7082 1.61589 22.3505 2.13328 22.1457C2.65067 21.941 3.22251 21.8999 3.76587 22.0283L10.5658 23.6123C10.4391 23.9602 10.4598 24.342 10.6235 24.6754C10.7872 25.0088 11.0808 25.2669 11.4409 25.3943L20.3123 28.5275C20.3598 28.5441 20.4099 28.5526 20.4604 28.5525C20.5609 28.5522 20.658 28.518 20.735 28.4559C20.8119 28.3938 20.8637 28.3077 20.8813 28.2127C20.8989 28.1176 20.8813 28.0197 20.8314 27.9359C20.7815 27.8521 20.7026 27.7877 20.6085 27.7541L11.7328 24.6201C11.6542 24.5922 11.5824 24.5488 11.5222 24.4929C11.4619 24.4369 11.4144 24.3694 11.3828 24.2949C11.3511 24.2203 11.336 24.1402 11.3383 24.0597C11.3406 23.9792 11.3604 23.9001 11.3963 23.8273C11.5927 23.4336 11.9007 23.1011 12.285 22.8679C12.6692 22.6347 13.1142 22.5104 13.5687 22.5092H21.1882C23.5019 22.5084 25.7359 23.3214 27.4682 24.7946L27.9831 25.2327C28.0615 25.2993 28.1627 25.3361 28.2675 25.3361H32.6729V32.0171L28.2271 32.0187Z" fill="white"/>
</svg>
