<svg width="43" height="39" viewBox="0 0 43 39" fill="none" xmlns="http://www.w3.org/2000/svg">
<path d="M42.4065 4.35645C42.1383 4.04866 41.7985 3.82325 41.4221 3.70348C41.0457 3.58371 40.6464 3.5739 40.2653 3.67507C39.8842 3.77623 39.5351 3.98471 39.254 4.27901C38.973 4.57331 38.7701 4.94278 38.6664 5.34933L35.5965 17.3632C35.0493 17.3163 34.499 17.3916 33.9802 17.5843C33.4614 17.7771 32.9854 18.0831 32.5822 18.4831L27.6492 23.3929C26.6584 24.3831 25.868 25.5816 25.3271 26.914C24.7862 28.2463 24.5066 29.684 24.5055 31.1374V38.4936C24.5055 38.6279 24.5551 38.7567 24.6436 38.8517C24.732 38.9466 24.852 39 24.977 39C25.1021 39 25.222 38.9466 25.3105 38.8517C25.3989 38.7567 25.4486 38.6279 25.4486 38.4936V31.1334C25.4503 29.8198 25.7036 28.5207 26.1927 27.3167C26.6819 26.1126 27.3964 25.0295 28.2919 24.1346L33.2258 19.2208C33.7097 18.7419 34.3255 18.4447 34.9803 18.3739C35.6352 18.3032 36.2937 18.4628 36.8568 18.8287C36.95 18.8899 37.0303 18.9712 37.0927 19.0675C37.1551 19.1638 37.1981 19.2729 37.2192 19.388C37.2402 19.5031 37.2387 19.6216 37.2149 19.7361C37.191 19.8505 37.1453 19.9584 37.0806 20.0529L31.8527 27.6762C31.8112 27.7294 31.7803 27.7911 31.7619 27.8576C31.7435 27.9241 31.7381 27.994 31.7459 28.0628C31.7537 28.1317 31.7746 28.1981 31.8073 28.2579C31.84 28.3177 31.8838 28.3697 31.936 28.4106C31.9881 28.4515 32.0476 28.4805 32.1106 28.4957C32.1736 28.5109 32.2389 28.512 32.3024 28.499C32.3658 28.486 32.4261 28.4591 32.4795 28.4201C32.5329 28.381 32.5782 28.3306 32.6127 28.2719L37.8406 20.6486C37.9829 20.4411 38.0834 20.2041 38.1358 19.9526C38.1882 19.7011 38.1913 19.4407 38.145 19.1878C38.0986 18.935 38.0038 18.6953 37.8666 18.4839C37.7294 18.2725 37.5527 18.0941 37.3478 17.9599C37.0891 17.7913 36.8133 17.6551 36.5258 17.5538L39.5771 5.61046C39.6515 5.32502 39.8108 5.07352 40.0306 4.89428C40.2505 4.71503 40.5188 4.61787 40.7949 4.61758C40.9679 4.61756 41.1391 4.65573 41.2979 4.72971C41.4566 4.80369 41.5995 4.91191 41.7176 5.04764C41.8358 5.18338 41.9268 5.34374 41.9848 5.51878C42.0429 5.69382 42.0668 5.87981 42.0552 6.0652L41.1425 20.5166C41.0435 22.1247 40.4783 23.6592 39.5263 24.9051L32.744 33.7973C32.675 33.8877 32.6374 34.0011 32.6377 34.118V38.4867C32.6377 38.621 32.6874 38.7498 32.7758 38.8447C32.8642 38.9397 32.9842 38.993 33.1093 38.993C33.2343 38.993 33.3543 38.9397 33.4427 38.8447C33.5311 38.7498 33.5808 38.621 33.5808 38.4867V34.3027L40.2549 25.5465C41.3321 24.1373 41.9713 22.4013 42.0829 20.5821L42.9955 6.12973C43.0147 5.8067 42.9723 5.48286 42.871 5.17798C42.7698 4.8731 42.6117 4.59357 42.4065 4.35645V4.35645ZM15.3515 23.3929L10.4185 18.4792C10.0153 18.0791 9.53934 17.7731 9.02056 17.5804C8.50178 17.3876 7.95144 17.3123 7.40422 17.3592L4.33441 5.34536C4.19015 4.77833 3.85473 4.28914 3.39333 3.97285C2.93193 3.65656 2.3775 3.53576 1.83778 3.63392C1.29806 3.73208 0.811598 4.04219 0.472926 4.50399C0.134254 4.96579 -0.0324408 5.5463 0.00523476 6.13271L0.917856 20.5861C1.02941 22.4052 1.66865 24.1413 2.74587 25.5505L9.41994 34.3067V38.4936C9.41994 38.6279 9.46962 38.7567 9.55805 38.8517C9.64649 38.9466 9.76644 39 9.8915 39C10.0166 39 10.1365 38.9466 10.225 38.8517C10.3134 38.7567 10.3631 38.6279 10.3631 38.4936V34.125C10.3649 34.0057 10.3272 33.8895 10.2567 33.7973L3.47542 24.9011C2.52336 23.6552 1.95819 22.1207 1.85914 20.5126L0.94652 6.0652C0.925503 5.72983 1.0212 5.39804 1.21507 5.13414C1.40893 4.87025 1.68715 4.69305 1.99577 4.63691C2.30439 4.58077 2.62143 4.64969 2.88542 4.8303C3.14941 5.01091 3.34154 5.29035 3.42456 5.61443L6.47588 17.5578C6.18835 17.659 5.91256 17.7953 5.65387 17.9639C5.44898 18.098 5.27231 18.2765 5.13508 18.4879C4.99784 18.6993 4.90304 18.939 4.8567 19.1918C4.81035 19.4447 4.81348 19.7051 4.86587 19.9566C4.91826 20.208 5.01878 20.445 5.16104 20.6526L10.389 28.2759C10.4658 28.3743 10.5746 28.4376 10.6933 28.4532C10.812 28.4687 10.9317 28.4352 11.0283 28.3595C11.1249 28.2838 11.1911 28.1715 11.2135 28.0454C11.2359 27.9193 11.2128 27.7887 11.149 27.6802L5.92202 20.0529C5.8573 19.9584 5.81157 19.8505 5.78772 19.7361C5.76387 19.6216 5.76241 19.5031 5.78345 19.388C5.80448 19.2729 5.84755 19.1638 5.90992 19.0675C5.9723 18.9712 6.05261 18.8899 6.14578 18.8287C6.70888 18.4628 7.36742 18.3032 8.02228 18.3739C8.67714 18.4447 9.29289 18.7419 9.77685 19.2208L14.7107 24.1346C15.6062 25.0295 16.3207 26.1126 16.8099 27.3167C17.299 28.5207 17.5523 29.8198 17.554 31.1334V38.4936C17.554 38.6279 17.6037 38.7567 17.6921 38.8517C17.7806 38.9466 17.9005 39 18.0256 39C18.1506 39 18.2706 38.9466 18.359 38.8517C18.4475 38.7567 18.4971 38.6279 18.4971 38.4936V31.1334C18.4953 29.6805 18.2151 28.2436 17.6739 26.9119C17.1328 25.5803 16.3422 24.3825 15.3515 23.3929V23.3929ZM29.5448 19.1643V8.99816H32.2706C32.371 8.998 32.4687 8.96344 32.5496 8.8995C32.6304 8.83556 32.6901 8.74559 32.7201 8.64268C32.75 8.53977 32.7485 8.42929 32.7159 8.32733C32.6833 8.22537 32.6212 8.13724 32.5388 8.07578L29.0972 5.52408V1.27554C29.0972 1.20905 29.085 1.1432 29.0613 1.08177C29.0376 1.02033 29.0029 0.964509 28.9591 0.917489C28.9153 0.870468 28.8633 0.833169 28.8061 0.807721C28.7489 0.782274 28.6876 0.769176 28.6257 0.769176H25.3654C25.2403 0.769176 25.1204 0.822526 25.0319 0.917489C24.9435 1.01245 24.8938 1.14125 24.8938 1.27554V2.40643L21.7685 0.0900467C21.6898 0.0314156 21.5962 0 21.5004 0C21.4045 0 21.311 0.0314156 21.2322 0.0900467L10.4602 8.07578C10.3771 8.13682 10.3145 8.22483 10.2815 8.32691C10.2484 8.42898 10.2467 8.53973 10.2766 8.64291C10.3065 8.74609 10.3664 8.83626 10.4476 8.9002C10.5287 8.96414 10.6267 8.99847 10.7274 8.99816H13.456V19.1643C13.456 19.2308 13.4682 19.2966 13.4919 19.358C13.5156 19.4195 13.5503 19.4753 13.5941 19.5223C13.6379 19.5693 13.6899 19.6066 13.7471 19.6321C13.8043 19.6575 13.8656 19.6706 13.9276 19.6706H29.076C29.2006 19.6698 29.3198 19.6161 29.4076 19.5213C29.4955 19.4264 29.5448 19.298 29.5448 19.1643ZM23.9211 18.6579H19.0769V13.1831C19.0774 12.5013 19.3299 11.8475 19.7789 11.3654C20.2279 10.8832 20.8367 10.6121 21.4717 10.6116H21.529C22.164 10.6121 22.7729 10.8832 23.2219 11.3654C23.6709 11.8475 23.9234 12.5013 23.9239 13.1831L23.9211 18.6579ZM28.6016 8.49179V18.6579H24.867V13.1831C24.866 12.2329 24.514 11.3218 23.8883 10.6498C23.2625 9.97787 22.414 9.5999 21.529 9.59885H21.4717C20.5867 9.5999 19.7383 9.97787 19.1125 10.6498C18.4867 11.3218 18.1347 12.2329 18.1338 13.1831V18.6579H14.3964V8.49179C14.3964 8.3575 14.3467 8.2287 14.2582 8.13374C14.1698 8.03877 14.0499 7.98542 13.9248 7.98542H12.241L21.5004 1.12165L25.0972 3.78753C25.168 3.84003 25.2507 3.87077 25.3365 3.87641C25.4224 3.88206 25.508 3.8624 25.5842 3.81956C25.6603 3.77672 25.7242 3.71234 25.7687 3.63337C25.8133 3.55439 25.8369 3.46385 25.8369 3.37151V1.78291H28.1578V5.79116C28.1578 5.87301 28.1763 5.95363 28.2117 6.0261C28.2472 6.09856 28.2985 6.16071 28.3612 6.20718L30.7597 7.98245H29.076C29.0138 7.98244 28.9523 7.99564 28.8949 8.02127C28.8375 8.04691 28.7854 8.08447 28.7415 8.13181C28.6977 8.17915 28.663 8.23532 28.6395 8.2971C28.616 8.35888 28.604 8.42505 28.6044 8.49179H28.6016Z" fill="#293740"/>
</svg>
